# AST/ASF file generated using VICON BodyLanguage
# -----------------------------------------------
:version 1.10
:name VICON
:units
  mass 1.0
  length 0.45
  angle deg
:documentation
   .ast/.asf automatically generated from VICON data using
   VICON BodyBuilder and BodyLanguage model FoxedUp or BRILLIANT.MOD
:root
   order TX TY TZ RX RY RZ
   axis XYZ
   position 0 0 0  
   orientation 0 0 0 
:bonedata
  begin
     id 1 
     name lhipjoint
     direction 0.623415 -0.642378 0.445763 
     length 2.49859 
     axis 0 0 0  XYZ
  end
  begin
     id 2 
     name lfemur
     direction 0.34202 -0.939693 0  
     length 6.69689  
     axis 0 0 20  XYZ
    dof rx ry rz
    limits (-160.0 20.0)
           (-70.0 70.0)
           (-60.0 70.0)
  end
  begin
     id 3 
     name ltibia
     direction 0.34202 -0.939693 0   
     length 7.37574   
     axis 0 0 20   XYZ
    dof rx
    limits (-10.0 170.0)
  end
  begin
     id 4 
     name lfoot
     direction 0.084323 -0.231675 0.969132   
     length 2.09111   
     axis -90 7.62852e-016 20   XYZ
    dof rx rz
    limits (-45.0 90.0)
           (-70.0 20.0)
  end
  begin
     id 5 
     name ltoes
     direction 1.5357e-011 -4.21957e-011 1   
     length 1.04989   
     axis -90 7.62852e-016 20   XYZ
    dof rx
    limits (-90.0 20.0)
  end
  begin
     id 6 
     name rhipjoint
     direction -0.605402 -0.653903 0.45376   
     length 2.45455  
     axis 0 0 0  XYZ 
  end
  begin
     id 7 
     name rfemur
     direction -0.34202 -0.939693 0   
     length 6.64523   
     axis 0 0 -20   XYZ
    dof rx ry rz
    limits (-160.0 20.0)
           (-70.0 70.0)
           (-70.0 60.0)
  end
  begin
     id 8 
     name rtibia
     direction -0.34202 -0.939693 0   
     length 7.3339   
     axis 0 0 -20   XYZ
    dof rx
    limits (-10.0 170.0)
 end
 begin
     id 9 
     name rfoot
     direction -0.120854 -0.332043 0.93549   
     length 2.23135  
     axis -90 -7.62852e-016 -20   XYZ
    dof rx rz
    limits (-45.0 90.0)
           (-20.0 70.0)
  end
  begin
     id 10 
     name rtoes
     direction -1.53563e-011 -4.21914e-011 1   
     length 1.10614   
     axis -90 -7.62852e-016 -20   XYZ
    dof rx
    limits (-90.0 20.0)
  end
  begin
     id 11 
     name lowerback
     direction 0.0319682 0.998615 -0.0417941   
     length 2.02718   
     axis 0 0 0   XYZ
    dof rx ry rz
    limits (-20.0 45.0)
           (-30.0 30.0)
           (-30.0 30.0)
  end
  begin
     id 12 
     name upperback
     direction 7.63181e-005 0.995808 0.0914691   
     length 1.97539   
     axis 0 0 0   XYZ
    dof rx ry rz
    limits (-20.0 45.0)
           (-30.0 30.0)
           (-30.0 30.0)
  end
  begin
     id 13 
     name thorax
     direction -0.016423 0.993627 0.111514   
     length 2.00349   
     axis 0 0 0   XYZ
    dof rx ry rz
    limits (-20.0 45.0)
           (-30.0 30.0)
           (-30.0 30.0)
  end
  begin
     id 14 
     name lowerneck
     direction -0.174763 0.981668 -0.0760716   
     length 1.71436   
     axis 0 0 0   XYZ
    dof rx ry rz
    limits (-20.0 45.0)
           (-30.0 30.0)
           (-30.0 30.0)
  end
  begin
     id 15 
     name upperneck
     direction 0.345458 0.934587 -0.0848868   
     length 1.72805   
     axis 0 0 0   XYZ
    dof rx ry rz
    limits (-20.0 45.0)
           (-30.0 30.0)
           (-30.0 30.0)
  end
  begin
     id 16
     name head
     direction 0.13001 0.989848 -0.0574291  
     length 1.767  
     axis 0 0 0   XYZ
    dof rx ry rz
    limits (-20.0 45.0)
           (-30.0 30.0)
           (-30.0 30.0)
  end
  begin
     id 17 
     name lclavicle
     direction 0.952951 0.290122 0.0878234  
     length 3.54654  
     axis 0 0 0   XYZ
    dof ry rz
    limits (-20.0 10.0)
           (0.0 20.0)
  end
  begin
     id 18 
     name lhumerus
     direction 1 -4.48957e-011 -4.56525e-028   
     length 5.19807   
     axis 180 -30 -90   XYZ
    dof rx ry rz
    limits (-60.0 90.0)
           (-90.0 90.0)
           (-90.0 90.0)
  end
  begin
     id 19
     name lradius
     direction 1 -4.48979e-011 -2.0317e-027   
     length 3.0937   
     axis 180 -30 -90   XYZ
    dof rx
    limits (-10.0 170.0)
  end
  begin
     id 20
     name lwrist
     direction 1 -4.48953e-011 -3.05809e-027   
     length 1.54685   
     axis 8.48514e-016 90 90   XYZ
    dof ry
    limits (-180.0 0.0)
 end
  begin
     id 21 
     name lhand
     direction 1 -4.48952e-011 -6.11639e-027   
     length 0.672632   
     axis 3.9013e-015 90 90   XYZ
    dof rx rz
    limits (-90.0 90.0)
           (-45.0 45.0)
  end
  begin
     id 22 
     name lfingers
     direction 1 -4.48925e-011 -1.22426e-026   
     length 0.542293   
     axis 7.80276e-015 90 90   XYZ
    dof rx
    limits (0.0 90.0)
  end
  begin
     id 23
     name lthumb
     direction 0.707107 -6.3486e-011 0.707107   
     length 0.778628   
     axis -90 45 5.37419e-014   XYZ
    dof rx rz
    limits (-45.0 45.0)
           (-45.0 45.0)
  end
  begin
     id 24 
     name rclavicle
     direction -0.960732 0.273675 -0.0457849   
     length 3.52079  
     axis 0 0 0   XYZ 
    dof ry rz
    limits (-10.0 20.0)
           (-20.0 0.0)
  end
  begin
     id 25 
     name rhumerus
     direction -1 -4.48976e-011 -1.63613e-027  
     length 5.45222   
     axis 180 30 90   XYZ
    dof rx ry rz
    limits (-90.0 60.0)
           (-90.0 90.0)
           (-90.0 90.0)
  end
  begin
     id 26 
     name rradius
     direction -1 -4.48957e-011 -7.00033e-028   
     length 3.01284   
     axis 180 30 90   XYZ
    dof rx
    limits (-10.0 170.0)
  end
  begin
     id 27 
     name rwrist
     direction -1 -4.48983e-011 -3.05543e-027   
     length 1.50642   
     axis 8.48514e-016 -90 -90   XYZ
    dof ry
    limits (-180.0 0.0)
  end
  begin
     id 28
     name rhand
     direction -1 -4.48984e-011 -6.11072e-027   
     length 0.622296   
     axis 3.9013e-015 -90 -90   XYZ
    dof rx rz
    limits (-90.0 90.0)
           (-45.0 45.0)
  end
  begin
     id 29
     name rfingers
     direction -1 -4.48865e-011 -1.22637e-026   
     length 0.501711   
     axis 7.80276e-015 -90 -90   XYZ
    dof rx
    limits (0.0 90.0)
  end
  begin
     id 30
     name rthumb
     direction -0.707107 -6.34932e-011 0.707107   
     length 0.72036   
     axis -90 -45 -5.37419e-014   XYZ
    dof rx rz
    limits (-45.0 45.0)
           (-45.0 45.0)
  end
:hierarchy
  begin
    root lhipjoint rhipjoint lowerback
    lhipjoint lfemur
    lfemur ltibia
    ltibia lfoot
    lfoot ltoes
    rhipjoint rfemur
    rfemur rtibia
    rtibia rfoot
    rfoot rtoes
    lowerback upperback
    upperback thorax
    thorax lowerneck lclavicle rclavicle
    lowerneck upperneck
    upperneck head
    lclavicle lhumerus
    lhumerus lradius
    lradius lwrist
    lwrist lhand lthumb
    lhand lfingers
    rclavicle rhumerus
    rhumerus rradius
    rradius rwrist
    rwrist rhand rthumb
    rhand rfingers
  end

#!OML:ASF H:\Not Pregnant\Project 1\Capture day 1\Session 1\non-pregnant.ASF
:FULLY-SPECIFIED
:DEGREES
18
root -5.50961 16.3113 35.0601 140.096 -84.2311 -129.748
lowerback -14.6921 2.18523 5.65148
upperback -2.84697 1.94056 -0.948432
thorax 5.43431 0.992786 -3.83694
lowerneck 34.1479 -1.11396 -32.962
upperneck -7.48903 -12.8945 43.5973
head -2.3235 -10.5217 26.57
rclavicle -4.14963e-015 1.19271e-015
rhumerus 6.44017 35.7859 -97.8945
rradius 130.893
rwrist -30.9388
rhand -26.3334 -19.4302
rfingers 7.12502
rthumb 0.223782 -49.4099
lclavicle -4.14963e-015 1.19271e-015
lhumerus 1.31762 -38.3178 89.2093
lradius 135.417
lwrist 64.4548
lhand -24.1119 -25.3565
lfingers 7.12502
lthumb 2.36933 4.61008
rfemur 0 0 0
rtibia 0
rfoot 0 0
rtoes 0
lfemur -14.4006 4.08864 -16.4332
ltibia 15.8031
lfoot -13.0572 -5.88645
ltoes -16.0836
19
root -5.51 16.3109 35.0615 140.929 -84.1922 -130.578
lowerback -14.8063 2.17731 5.64729
upperback -2.76285 1.92345 -0.936809
thorax 5.58397 0.991079 -3.82244
lowerneck 34.2346 -1.05149 -33.0618
upperneck -7.31698 -12.9221 43.5583
head -2.27082 -10.5415 26.5547
rclavicle -4.2366e-015 2.78299e-015
rhumerus 6.74116 36.3056 -97.9681
rradius 131.346
rwrist -30.6223
rhand -26.4611 -19.4285
rfingers 7.12502
rthumb 0.100373 -49.4082
lclavicle -4.2366e-015 2.78299e-015
lhumerus 1.43535 -38.6735 89.4042
lradius 135.803
lwrist 64.2318
lhand -24.3243 -25.5778
lfingers 7.12502
lthumb 2.16418 4.39092
rfemur 0 0 0
rtibia 0
rfoot 0 0
rtoes 0
lfemur -14.3775 4.10462 -16.4687
ltibia 15.7842
lfoot -13.0528 -5.81364
ltoes -16.1557
20
root -5.51055 16.3103 35.0627 141.716 -84.1582 -131.365
lowerback -14.9137 2.16382 5.63502
upperback -2.68081 1.9006 -0.924135
thorax 5.72698 0.98615 -3.80361
lowerneck 34.3213 -0.996017 -33.1471
upperneck -7.17456 -12.9439 43.5129
head -2.23052 -10.5566 26.5322
rclavicle -3.15571e-015 1.35174e-014
rhumerus 6.94987 36.7969 -98.1206
rradius 131.773
rwrist -30.1403
rhand -26.5732 -19.3561
rfingers 7.12502
rthumb -0.00786447 -49.3359
lclavicle -3.15571e-015 1.35174e-014
lhumerus 1.45556 -39.002 89.6415
lradius 136.184
lwrist 64.0152
lhand -24.4848 -25.7658
lfingers 7.12502
lthumb 2.00912 4.20446
rfemur 0 0 0
rtibia 0
rfoot 0 0
rtoes 0
lfemur -14.3521 4.12767 -16.5066
ltibia 15.7628
lfoot -13.05 -5.75312
ltoes -16.252
21
root -5.51125 16.3097 35.0635 142.362 -84.1206 -132.014
lowerback -15.0136 2.14659 5.62518
upperback -2.59856 1.87264 -0.906831
thorax 5.86557 0.978613 -3.78249
lowerneck 34.4022 -0.941868 -33.2298
upperneck -7.05094 -12.9597 43.4732
head -2.19705 -10.5683 26.5161
rclavicle 2.14936e-015 1.19271e-014
rhumerus 7.08521 37.2812 -98.3077
rradius 132.168
rwrist -29.5702
rhand -26.6679 -19.2091
rfingers 7.12502
rthumb -0.0992873 -49.1888
lclavicle 2.14936e-015 1.19271e-014
lhumerus 1.39817 -39.2576 89.9225
lradius 136.558
lwrist 63.8254
lhand -24.493 -25.7747
lfingers 7.12502
lthumb 2.00127 4.1957
rfemur 0 0 0
rtibia 0
rfoot 0 0
rtoes 0
lfemur -14.3245 4.15173 -16.5308
ltibia 15.7442
lfoot -13.0505 -5.69681
ltoes -16.3704
22
root -5.51212 16.309 35.0642 142.91 -84.0853 -132.568
lowerback -15.109 2.12348 5.61049
upperback -2.51702 1.8375 -0.882905
thorax 5.99995 0.967236 -3.75321
lowerneck 34.4759 -0.891935 -33.3012
upperneck -6.94683 -12.9672 43.4275
head -2.17316 -10.5736 26.4929
rclavicle 8.89561e-015 1.43125e-014
rhumerus 7.15815 37.7601 -98.5124
rradius 132.537
rwrist -28.9576
rhand -26.7179 -19.0369
rfingers 7.12502
rthumb -0.147661 -49.0166
lclavicle 8.89561e-015 1.43125e-014
lhumerus 1.27396 -39.4309 90.2399
lradius 136.925
lwrist 63.6645
lhand -24.3484 -25.6382
lfingers 7.12502
lthumb 2.14084 4.33085
rfemur 0 0 0
rtibia 0
rfoot 0 0
rtoes 0
lfemur -14.2962 4.17587 -16.5493
ltibia 15.7283
lfoot -13.0524 -5.65025
ltoes -16.4819
23
root -5.51309 16.3084 35.0647 143.413 -84.0527 -133.076
lowerback -15.2024 2.0956 5.59089
upperback -2.43758 1.79664 -0.854772
thorax 6.13025 0.952675 -3.718
lowerneck 34.5396 -0.851415 -33.3558
upperneck -6.86249 -12.9695 43.3695
head -2.15773 -10.573 26.4539
rclavicle 1.04859e-014 -1.59028e-015
rhumerus 7.18018 38.2518 -98.7255
rradius 132.88
rwrist -28.3363
rhand -26.7549 -18.8941
rfingers 7.12502
rthumb -0.183377 -48.8738
lclavicle 1.04859e-014 -1.59028e-015
lhumerus 1.08964 -39.5915 90.5841
lradius 137.268
lwrist 63.3809
lhand -24.1926 -25.4539
lfingers 7.12502
lthumb 2.29135 4.51351
rfemur 0 0 0
rtibia 0
rfoot 0 0
rtoes 0
lfemur -14.2728 4.19821 -16.5664
ltibia 15.719
lfoot -13.0562 -5.6115
ltoes -16.5536
24
root -5.51421 16.3079 35.0651 143.861 -84.0229 -133.529
lowerback -15.2981 2.067 5.56649
upperback -2.35738 1.75526 -0.824101
thorax 6.26247 0.93775 -3.67753
lowerneck 34.5953 -0.824307 -33.3823
upperneck -6.80357 -12.966 43.3004
head -2.15395 -10.5664 26.398
rclavicle -9.60378e-015 -3.18055e-015
rhumerus 7.16799 38.733 -98.9384
rradius 133.205
rwrist -27.7357
rhand -26.7509 -18.7297
rfingers 7.12502
rthumb -0.179503 -48.7093
lclavicle -9.60378e-015 -3.18055e-015
lhumerus 0.86564 -39.7595 90.9425
lradius 137.584
lwrist 62.9638
lhand -24.0366 -25.252
lfingers 7.12502
lthumb 2.44206 4.71382
rfemur 0 0 0
rtibia 0
rfoot 0 0
rtoes 0
lfemur -14.2531 4.22565 -16.5817
ltibia 15.715
lfoot -13.063 -5.5866
ltoes -16.5963
25
root -5.51544 16.3075 35.0653 144.241 -83.9943 -133.911
lowerback -15.3958 2.03445 5.54163
upperback -2.27946 1.70814 -0.788364
thorax 6.39282 0.919725 -3.63272
lowerneck 34.6361 -0.802223 -33.4009
upperneck -6.7567 -12.9565 43.2254
head -2.1551 -10.5542 26.3344
rclavicle -8.07563e-016 1.31198e-014
rhumerus 7.12632 39.2116 -99.1483
rradius 133.523
rwrist -27.1666
rhand -26.69 -18.6337
rfingers 7.12502
rthumb -0.12071 -48.6134
lclavicle -8.07563e-016 1.31198e-014
lhumerus 0.605405 -39.9595 91.3093
lradius 137.865
lwrist 62.3782
lhand -23.9569 -25.1283
lfingers 7.12502
lthumb 2.519 4.83657
rfemur 0 0 0
rtibia 0
rfoot 0 0
rtoes 0
lfemur -14.2402 4.25506 -16.5925
ltibia 15.7171
lfoot -13.0718 -5.57614
ltoes -16.5872
26
root -5.51682 16.3073 35.0654 144.551 -83.9682 -134.221
lowerback -15.496 2.00572 5.51405
upperback -2.20333 1.66641 -0.753666
thorax 6.52333 0.904143 -3.58643
lowerneck 34.6798 -0.787704 -33.3986
upperneck -6.73198 -12.9437 43.157
head -2.16574 -10.541 26.2744
rclavicle -1.20513e-014 -1.63003e-014
rhumerus 7.06344 39.6679 -99.3426
rradius 133.83
rwrist -26.6362
rhand -26.6205 -18.5469
rfingers 7.12502
rthumb -0.0535574 -48.5266
lclavicle -1.20513e-014 -1.63003e-014
lhumerus 0.32683 -40.2182 91.6788
lradius 138.107
lwrist 61.6478
lhand -23.9561 -25.1066
lfingers 7.12502
lthumb 2.51979 4.85821
rfemur 0 0 0
rtibia 0
rfoot 0 0
rtoes 0
lfemur -14.2324 4.29219 -16.5996
ltibia 15.7238
lfoot -13.0819 -5.58513
ltoes -16.5161
27
root -5.51823 16.3071 35.0654 144.778 -83.9433 -134.446
lowerback -15.5976 1.99419 5.49034
upperback -2.12977 1.6475 -0.730061
thorax 6.65489 0.899811 -3.54942
lowerneck 34.7431 -0.787668 -33.3572
upperneck -6.73275 -12.9358 43.1079
head -2.18617 -10.5353 26.226
rclavicle 3.36505e-014 1.66979e-014
rhumerus 6.98779 40.0749 -99.5127
rradius 134.122
rwrist -26.1611
rhand -26.5943 -18.4486
rfingers 7.12502
rthumb -0.0282901 -48.4283
lclavicle 3.36505e-014 1.66979e-014
lhumerus 0.0487202 -40.5386 92.0483
lradius 138.316
lwrist 60.8739
lhand -23.9751 -25.137
lfingers 7.12502
lthumb 2.5014 4.82812
rfemur 0 0 0
rtibia 0
rfoot 0 0
rtoes 0
lfemur -14.2306 4.33203 -16.6019
ltibia 15.7361
lfoot -13.0963 -5.59978
ltoes -16.462
28
root -5.51965 16.3069 35.0655 144.945 -83.9219 -134.61
lowerback -15.6908 1.97627 5.4723
upperback -2.06005 1.61972 -0.706813
thorax 6.77707 0.890894 -3.51815
lowerneck 34.7767 -0.778099 -33.348
upperneck -6.72064 -12.926 43.081
head -2.1953 -10.529 26.2033
rclavicle -1.36913e-014 6.36111e-015
rhumerus 6.897 40.4908 -99.6773
rradius 134.397
rwrist -25.7469
rhand -26.6093 -18.3274
rfingers 7.12502
rthumb -0.0427254 -48.3071
lclavicle -1.36913e-014 6.36111e-015
lhumerus -0.224002 -40.8489 92.4014
lradius 138.513
lwrist 60.1627
lhand -24.0234 -25.2254
lfingers 7.12502
lthumb 2.45479 4.74018
rfemur 0 0 0
rtibia 0
rfoot 0 0
rtoes 0
lfemur -14.2322 4.36505 -16.602
ltibia 15.7509
lfoot -13.112 -5.60912
ltoes -16.4204
29
root -5.52101 16.3067 35.0655 145.039 -83.9013 -134.7
lowerback -15.7744 1.95701 5.46456
upperback -1.99305 1.58925 -0.686715
thorax 6.89128 0.880679 -3.49696
lowerneck 34.782 -0.763503 -33.3664
upperneck -6.69494 -12.9198 43.0793
head -2.19065 -10.5261 26.2069
rclavicle 1.6729e-014 -3.97569e-016
rhumerus 6.79811 40.9212 -99.8307
rradius 134.633
rwrist -25.4146
rhand -26.756 -18.0776
rfingers 7.12502
rthumb -0.18442 -48.0573
lclavicle 1.6729e-014 -3.97569e-016
lhumerus -0.472472 -41.1206 92.7358
lradius 138.708
lwrist 59.5864
lhand -24.0212 -25.2586
lfingers 7.12502
lthumb 2.45691 4.70698
rfemur 0 0 0
rtibia 0
rfoot 0 0
rtoes 0
lfemur -14.236 4.39664 -16.5969
ltibia 15.7669
lfoot -13.1298 -5.61303
ltoes -16.4207
30
root -5.52224 16.3063 35.0656 145.101 -83.8835 -134.758
lowerback -15.8453 1.93333 5.46909
upperback -1.93053 1.5519 -0.67058
thorax 6.99352 0.867079 -3.48882
lowerneck 34.7524 -0.743335 -33.4076
upperneck -6.64715 -12.9122 43.0879
head -2.1728 -10.5213 26.221
rclavicle 2.13694e-015 1.19271e-014
rhumerus 6.69672 41.3725 -99.9811
rradius 134.821
rwrist -25.1648
rhand -27.0291 -17.6798
rfingers 7.12502
rthumb -0.448223 -47.659
lclavicle 2.13694e-015 1.19271e-014
lhumerus -0.689159 -41.3298 93.0366
lradius 138.906
lwrist 59.2148
lhand -23.9317 -25.2633
lfingers 7.12502
lthumb 2.5433 4.70132
rfemur 0 0 0
rtibia 0
rfoot 0 0
rtoes 0
lfemur -14.2388 4.41734 -16.5906
ltibia 15.7809
lfoot -13.1471 -5.60481
ltoes -16.4634
31
root -5.52339 16.306 35.0656 145.132 -83.869 -134.786
lowerback -15.9059 1.90433 5.48189
upperback -1.87326 1.50675 -0.65581
thorax 7.08399 0.84949 -3.48888
lowerneck 34.6933 -0.718728 -33.4673
upperneck -6.57985 -12.9025 43.0974
head -2.14459 -10.5134 26.2365
rclavicle 4.2366e-015 -2.0276e-014
rhumerus 6.5929 41.8386 -100.126
rradius 134.961
rwrist -24.9667
rhand -27.4397 -17.1667
rfingers 7.12502
rthumb -0.844792 -47.1448
lclavicle 4.2366e-015 -2.0276e-014
lhumerus -0.880754 -41.5485 93.3066
lradius 139.093
lwrist 58.9193
lhand -23.8922 -25.3578
lfingers 7.12502
lthumb 2.58144 4.6063
rfemur 0 0 0
rtibia 0
rfoot 0 0
rtoes 0
lfemur -14.2409 4.43135 -16.5831
ltibia 15.7931
lfoot -13.1627 -5.59544
ltoes -16.4994
32
root -5.52446 16.3057 35.0654 145.168 -83.8571 -134.82
lowerback -15.96 1.87248 5.49307
upperback -1.82081 1.4585 -0.642023
thorax 7.16541 0.830001 -3.48999
lowerneck 34.6176 -0.691918 -33.5307
upperneck -6.5007 -12.8882 43.1019
head -2.11298 -10.5013 26.2466
rclavicle -1.60084e-014 1.23246e-014
rhumerus 6.48695 42.2998 -100.265
rradius 135.058
rwrist -24.8129
rhand -27.9389 -16.5947
rfingers 7.12502
rthumb -1.32694 -46.5703
lclavicle -1.60084e-014 1.23246e-014
lhumerus -1.04361 -41.783 93.5467
lradius 139.262
lwrist 58.6606
lhand -23.8833 -25.5441
lfingers 7.12502
lthumb 2.59005 4.41989
rfemur 0 0 0
rtibia 0
rfoot 0 0
rtoes 0
lfemur -14.2408 4.44333 -16.5772
ltibia 15.8025
lfoot -13.178 -5.58464
ltoes -16.5596
33
root -5.52545 16.3054 35.0651 145.19 -83.8478 -134.841
lowerback -16.0113 1.8445 5.50063
upperback -1.77535 1.41633 -0.631459
thorax 7.23838 0.812964 -3.49135
lowerneck 34.5436 -0.666814 -33.5809
upperneck -6.41428 -12.8721 43.1009
head -2.08227 -10.4881 26.2481
rclavicle 7.66253e-015 3.45885e-014
rhumerus 6.37773 42.7131 -100.401
rradius 135.134
rwrist -24.6591
rhand -28.4302 -16.1404
rfingers 7.12502
rthumb -1.80143 -46.1126
lclavicle 7.66253e-015 3.45885e-014
lhumerus -1.17871 -42.0448 93.7632
lradius 139.41
lwrist 58.4184
lhand -23.9018 -25.8026
lfingers 7.12502
lthumb 2.57215 4.16164
rfemur 0 0 0
rtibia 0
rfoot 0 0
rtoes 0
lfemur -14.2416 4.45024 -16.571
ltibia 15.8118
lfoot -13.1911 -5.57601
ltoes -16.6023
